<?xml version="1.0" encoding="utf-8"?>
<!-- Generator: Adobe Illustrator 19.0.0, SVG Export Plug-In . SVG Version: 6.00 Build 0)  -->
<svg version="1.1" id="Layer_1" xmlns="http://www.w3.org/2000/svg" xmlns:xlink="http://www.w3.org/1999/xlink" x="0px" y="0px"
	 viewBox="0 0 96 96" style="enable-background:new 0 0 96 96;" xml:space="preserve">
<style type="text/css">
	.st0{fill:#95A5A6;}
	.st1{fill:#7F8C8D;}
	.st2{fill:#BDC3C7;}
	.st3{fill:#34495E;}
	.st4{fill:#2C3E50;}
</style>
<g id="XMLID_1_">
	<path id="XMLID_3_" class="st0" d="M39.5,62.9c0,0.5,0.1,0.9,0.1,1.4c0,5-2,9.5-5.2,12.2h10.8h5.4h10.8c-3.1-2.7-5.2-7.1-5.2-12.2
		c0-0.5,0-0.9,0.1-1.4h-5.8h-5.4H39.5z"/>
	<path id="XMLID_4_" class="st1" d="M39.5,62.9c0,0.3,0.1,0.8,0.1,1.4c0,1.4-0.1,2.7-0.4,4.1h17.6c-0.3-1.4-0.4-2.7-0.4-4.1
		c0-0.5,0-1.1,0.1-1.4h-5.8h-5.4H39.5z"/>
	<path id="XMLID_5_" class="st2" d="M18.2,19.6c-1.5,0-2.7,1.1-2.7,2.7V25v5.4v5.4v5.4v2.7v2.7v2.7v5.4v5.4v2.7
		c0,1.4,1.2,2.7,2.7,2.7h2.7h35.2h16.3h2.7h2.7c1.5,0,2.7-1.4,2.7-2.7v-2.7v-19v-2.7v-2.7v-5.4V25v-2.7c0-1.6-1.2-2.7-2.7-2.7h-2.7
		H61.5h-2.7H34.5H23.6h-2.7H18.2z"/>
	<rect id="XMLID_6_" x="18.2" y="22.3" class="st3" width="59.6" height="37.9"/>
	<polygon id="XMLID_7_" class="st4" points="77.8,25 20.9,60.2 74,60.2 77.8,60.2 77.8,55.9 	"/>
</g>
</svg>
